<svg width="24" height="24" viewBox="0 0 24 24" fill="none" xmlns="http://www.w3.org/2000/svg">
<rect width="24" height="24" rx="3" fill="#B7D8FF"/>
<path d="M5.23072 9.65223H8.1323V19H5.23072V9.65223ZM6.68231 5C7.0151 5 7.34042 5.09883 7.61711 5.28399C7.8938 5.46915 8.10943 5.73231 8.23671 6.0402C8.36399 6.34808 8.39721 6.68684 8.33217 7.01363C8.26713 7.34042 8.10675 7.64056 7.87131 7.87607C7.63587 8.11157 7.33597 8.27187 7.00953 8.33668C6.68309 8.4015 6.34478 8.36791 6.03741 8.24017C5.73003 8.11244 5.4674 7.89629 5.28274 7.61908C5.09808 7.34186 4.99968 7.01604 5 6.68282C5.00043 6.23636 5.17786 5.80833 5.4933 5.49279C5.80875 5.17725 6.23641 5 6.68231 5ZM9.95239 9.65223H12.7338V10.9356H12.7723C13.16 10.2009 14.1053 9.42603 15.5168 9.42603C18.4553 9.41962 19 11.3559 19 13.8665V19H16.0984V14.452C16.0984 13.3692 16.0792 11.9751 14.5908 11.9751C13.1023 11.9751 12.8492 13.1558 12.8492 14.3815V19H9.95239V9.65223Z" fill="#192F51"/>
</svg>
