<svg width="32" height="32" viewBox="0 0 32 32" fill="none" xmlns="http://www.w3.org/2000/svg">
<path d="M21 12.6667L14.3333 19.3334L11 16.0001M8.21956 2.56255L2.5625 8.21961L2.55736 8.22443C1.98428 8.79751 1.69706 9.08473 1.49154 9.42012C1.30877 9.71836 1.17376 10.0439 1.0921 10.384C1 10.7676 1 11.1751 1 11.9905V20.0097C1 20.825 1 21.2326 1.0921 21.6162C1.17376 21.9563 1.30877 22.2814 1.49154 22.5796C1.69761 22.9159 1.98637 23.2047 2.5625 23.7808L8.21955 29.4379C8.79606 30.0144 9.08368 30.302 9.42007 30.5081C9.71831 30.6909 10.043 30.8264 10.3831 30.9081C10.7662 31.0001 11.173 31.0001 11.9859 31.0001H20.0125C20.8253 31.0001 21.2339 31.0001 21.617 30.9081C21.9571 30.8264 22.2822 30.6909 22.5804 30.5081C22.9168 30.302 23.2051 30.0144 23.7816 29.4379L29.4386 23.7808C30.0151 23.2043 30.3028 22.916 30.5089 22.5796C30.6917 22.2814 30.8256 21.9563 30.9072 21.6162C30.9993 21.2326 31 20.825 31 20.0097V11.9905C31 11.1751 30.9993 10.7676 30.9072 10.384C30.8256 10.0439 30.6917 9.71837 30.5089 9.42013C30.3028 9.08375 30.0151 8.79607 29.4386 8.2196L23.7816 2.56255C23.2054 1.98641 22.9167 1.69766 22.5804 1.49159C22.2822 1.30883 21.9571 1.17381 21.617 1.09215C21.2334 1.00005 20.8241 1.00005 20.0088 1.00005H11.9896C11.1743 1.00005 10.7668 1.00005 10.3831 1.09215C10.043 1.17381 9.71831 1.30883 9.42007 1.49159C9.08673 1.69586 8.80176 1.98083 8.23567 2.54694L8.21956 2.56255Z" stroke="#27C840" stroke-width="2" stroke-linecap="round" stroke-linejoin="round"/>
</svg>
